<mxfile host="app.diagrams.net" modified="2022-11-19T01:39:33.387Z" agent="5.0 (Windows NT 10.0; Win64; x64) AppleWebKit/537.36 (KHTML, like Gecko) Chrome/107.0.0.0 Safari/537.36" etag="MrxahtiDpkvE4XTiom1x" version="20.5.3" type="github">
  <diagram id="6a731a19-8d31-9384-78a2-239565b7b9f0" name="Page-1">
    <mxGraphModel dx="1342" dy="1441" grid="1" gridSize="10" guides="1" tooltips="1" connect="1" arrows="1" fold="1" page="1" pageScale="1" pageWidth="1169" pageHeight="827" background="none" math="0" shadow="0">
      <root>
        <mxCell id="0" />
        <mxCell id="1" parent="0" />
        <mxCell id="1754" value="Registro de Ordenes" style="rounded=1;whiteSpace=wrap;html=1;shadow=0;labelBackgroundColor=none;strokeColor=none;strokeWidth=3;fillColor=#f08e81;fontFamily=Helvetica;fontSize=14;fontColor=#FFFFFF;align=center;spacing=5;fontStyle=0;arcSize=7;perimeterSpacing=2;" parent="1" vertex="1">
          <mxGeometry x="420" y="119" width="140" height="40" as="geometry" />
        </mxCell>
        <mxCell id="1755" value="Nombres&lt;br&gt;Cédula&lt;br&gt;Usuario&lt;br&gt;Contraseña&lt;br&gt;Correo" style="rounded=1;whiteSpace=wrap;html=1;shadow=0;labelBackgroundColor=none;strokeColor=none;strokeWidth=3;fillColor=#f08e81;fontFamily=Helvetica;fontSize=14;fontColor=#FFFFFF;align=left;spacing=5;fontStyle=0;arcSize=7;perimeterSpacing=2;" parent="1" vertex="1">
          <mxGeometry x="132" y="201" width="110" height="80" as="geometry" />
        </mxCell>
        <mxCell id="1756" value="Registro" style="rounded=1;whiteSpace=wrap;html=1;shadow=0;labelBackgroundColor=none;strokeColor=none;strokeWidth=3;fillColor=#f08e81;fontFamily=Helvetica;fontSize=14;fontColor=#FFFFFF;align=center;spacing=5;fontStyle=0;arcSize=7;perimeterSpacing=2;" parent="1" vertex="1">
          <mxGeometry x="40" y="121" width="125" height="40" as="geometry" />
        </mxCell>
        <mxCell id="1764" value="Página principal&lt;br&gt;(RecogidaDePaquetes.com)&amp;nbsp;" style="rounded=1;whiteSpace=wrap;html=1;shadow=0;labelBackgroundColor=none;strokeColor=none;strokeWidth=3;fillColor=#F08705;fontFamily=Helvetica;fontSize=14;fontColor=#FFFFFF;align=center;spacing=5;fontStyle=1;arcSize=7;perimeterSpacing=2;" parent="1" vertex="1">
          <mxGeometry x="340" y="-40" width="255" height="60" as="geometry" />
        </mxCell>
        <mxCell id="1772" value="Cantidad&lt;br&gt;Estados" style="rounded=1;whiteSpace=wrap;html=1;shadow=0;labelBackgroundColor=none;strokeColor=none;strokeWidth=3;fillColor=#61c6ce;fontFamily=Helvetica;fontSize=14;fontColor=#FFFFFF;align=left;spacing=5;fontStyle=0;arcSize=7;perimeterSpacing=2;" parent="1" vertex="1">
          <mxGeometry x="884" y="180" width="110" height="50" as="geometry" />
        </mxCell>
        <mxCell id="1774" value="Listado de Ordenes" style="rounded=1;whiteSpace=wrap;html=1;shadow=0;labelBackgroundColor=none;strokeColor=none;strokeWidth=3;fillColor=#61c6ce;fontFamily=Helvetica;fontSize=14;fontColor=#FFFFFF;align=center;spacing=5;fontStyle=0;arcSize=7;perimeterSpacing=2;" parent="1" vertex="1">
          <mxGeometry x="765" y="119" width="155" height="40" as="geometry" />
        </mxCell>
        <mxCell id="1776" value="Usuario&lt;br&gt;Contraseña" style="rounded=1;whiteSpace=wrap;html=1;shadow=0;labelBackgroundColor=none;strokeColor=none;strokeWidth=3;fillColor=#61c6ce;fontFamily=Helvetica;fontSize=14;fontColor=#FFFFFF;align=left;spacing=5;fontStyle=0;arcSize=7;perimeterSpacing=2;" parent="1" vertex="1">
          <mxGeometry x="340" y="200" width="90" height="60" as="geometry" />
        </mxCell>
        <mxCell id="1778" value="Login" style="rounded=1;whiteSpace=wrap;html=1;shadow=0;labelBackgroundColor=none;strokeColor=none;strokeWidth=3;fillColor=#61c6ce;fontFamily=Helvetica;fontSize=14;fontColor=#FFFFFF;align=center;spacing=5;fontStyle=0;arcSize=7;perimeterSpacing=2;" parent="1" vertex="1">
          <mxGeometry x="270" y="121" width="110" height="40" as="geometry" />
        </mxCell>
        <mxCell id="aWVqA__GNzo0X58u-wp--1780" value="Fecha - hora&lt;br&gt;Dimensiones paquete&lt;br&gt;Datos remitente&lt;br&gt;Datos destinatario&amp;nbsp;" style="rounded=1;whiteSpace=wrap;html=1;shadow=0;labelBackgroundColor=none;strokeColor=none;strokeWidth=3;fillColor=#f08e81;fontFamily=Helvetica;fontSize=14;fontColor=#FFFFFF;align=left;spacing=5;fontStyle=0;arcSize=7;perimeterSpacing=2;" vertex="1" parent="1">
          <mxGeometry x="520" y="170" width="150" height="100" as="geometry" />
        </mxCell>
        <mxCell id="aWVqA__GNzo0X58u-wp--1781" value="Actualización Ordenes" style="rounded=1;whiteSpace=wrap;html=1;shadow=0;labelBackgroundColor=none;strokeColor=none;strokeWidth=3;fillColor=#f08e81;fontFamily=Helvetica;fontSize=14;fontColor=#FFFFFF;align=center;spacing=5;fontStyle=0;arcSize=7;perimeterSpacing=2;" vertex="1" parent="1">
          <mxGeometry x="510" y="290" width="140" height="40" as="geometry" />
        </mxCell>
        <mxCell id="aWVqA__GNzo0X58u-wp--1783" value="Cantidad&lt;br&gt;Estados&lt;br&gt;Fecha - hora&lt;br&gt;Dimensiones paquete&lt;br&gt;Datos remitente&lt;br&gt;Datos destinatario&amp;nbsp;" style="rounded=1;whiteSpace=wrap;html=1;shadow=0;labelBackgroundColor=none;strokeColor=none;strokeWidth=3;fillColor=#f08e81;fontFamily=Helvetica;fontSize=14;fontColor=#FFFFFF;align=left;spacing=5;fontStyle=0;arcSize=7;perimeterSpacing=2;" vertex="1" parent="1">
          <mxGeometry x="512" y="343.5" width="210" height="140" as="geometry" />
        </mxCell>
        <mxCell id="aWVqA__GNzo0X58u-wp--1784" value="" style="endArrow=none;html=1;rounded=0;" edge="1" parent="1">
          <mxGeometry width="50" height="50" relative="1" as="geometry">
            <mxPoint x="100" y="60" as="sourcePoint" />
            <mxPoint x="850" y="60" as="targetPoint" />
          </mxGeometry>
        </mxCell>
        <mxCell id="aWVqA__GNzo0X58u-wp--1790" value="" style="endArrow=none;html=1;rounded=0;" edge="1" parent="1">
          <mxGeometry width="50" height="50" relative="1" as="geometry">
            <mxPoint x="470" y="420" as="sourcePoint" />
            <mxPoint x="470" y="160" as="targetPoint" />
          </mxGeometry>
        </mxCell>
        <mxCell id="aWVqA__GNzo0X58u-wp--1793" value="" style="endArrow=none;html=1;rounded=0;" edge="1" parent="1">
          <mxGeometry width="50" height="50" relative="1" as="geometry">
            <mxPoint x="470" y="310" as="sourcePoint" />
            <mxPoint x="510" y="310" as="targetPoint" />
          </mxGeometry>
        </mxCell>
        <mxCell id="aWVqA__GNzo0X58u-wp--1795" value="" style="endArrow=none;html=1;rounded=0;entryX=0.368;entryY=0.091;entryDx=0;entryDy=0;entryPerimeter=0;" edge="1" parent="1" target="1778">
          <mxGeometry width="50" height="50" relative="1" as="geometry">
            <mxPoint x="310" y="60" as="sourcePoint" />
            <mxPoint x="517" y="140" as="targetPoint" />
          </mxGeometry>
        </mxCell>
        <mxCell id="aWVqA__GNzo0X58u-wp--1796" value="" style="endArrow=none;html=1;rounded=0;entryX=0.368;entryY=0.091;entryDx=0;entryDy=0;entryPerimeter=0;" edge="1" parent="1">
          <mxGeometry width="50" height="50" relative="1" as="geometry">
            <mxPoint x="100.05000000000001" y="60" as="sourcePoint" />
            <mxPoint x="100.00200000000001" y="122.0039999999999" as="targetPoint" />
          </mxGeometry>
        </mxCell>
        <mxCell id="aWVqA__GNzo0X58u-wp--1797" value="" style="endArrow=none;html=1;rounded=0;entryX=0.368;entryY=0.091;entryDx=0;entryDy=0;entryPerimeter=0;" edge="1" parent="1">
          <mxGeometry width="50" height="50" relative="1" as="geometry">
            <mxPoint x="850.05" y="60" as="sourcePoint" />
            <mxPoint x="850.002" y="122.0039999999999" as="targetPoint" />
          </mxGeometry>
        </mxCell>
        <mxCell id="aWVqA__GNzo0X58u-wp--1801" value="" style="endArrow=none;html=1;rounded=0;" edge="1" parent="1">
          <mxGeometry width="50" height="50" relative="1" as="geometry">
            <mxPoint x="470" y="230" as="sourcePoint" />
            <mxPoint x="520" y="230" as="targetPoint" />
          </mxGeometry>
        </mxCell>
        <mxCell id="aWVqA__GNzo0X58u-wp--1802" value="" style="endArrow=none;html=1;rounded=0;entryX=0.572;entryY=0.932;entryDx=0;entryDy=0;entryPerimeter=0;" edge="1" parent="1" target="1774">
          <mxGeometry width="50" height="50" relative="1" as="geometry">
            <mxPoint x="854" y="210" as="sourcePoint" />
            <mxPoint x="610" y="170" as="targetPoint" />
          </mxGeometry>
        </mxCell>
        <mxCell id="aWVqA__GNzo0X58u-wp--1803" value="" style="endArrow=none;html=1;rounded=0;entryX=0.572;entryY=0.932;entryDx=0;entryDy=0;entryPerimeter=0;" edge="1" parent="1">
          <mxGeometry width="50" height="50" relative="1" as="geometry">
            <mxPoint x="310.04999999999995" y="210.99" as="sourcePoint" />
            <mxPoint x="309.9979999999998" y="158.99800000000005" as="targetPoint" />
          </mxGeometry>
        </mxCell>
        <mxCell id="aWVqA__GNzo0X58u-wp--1804" value="" style="endArrow=none;html=1;rounded=0;entryX=0.572;entryY=0.932;entryDx=0;entryDy=0;entryPerimeter=0;" edge="1" parent="1">
          <mxGeometry width="50" height="50" relative="1" as="geometry">
            <mxPoint x="102.04999999999995" y="210.99" as="sourcePoint" />
            <mxPoint x="101.99799999999982" y="158.99800000000005" as="targetPoint" />
          </mxGeometry>
        </mxCell>
        <mxCell id="aWVqA__GNzo0X58u-wp--1805" value="" style="endArrow=none;html=1;rounded=0;" edge="1" parent="1">
          <mxGeometry width="50" height="50" relative="1" as="geometry">
            <mxPoint x="102" y="211" as="sourcePoint" />
            <mxPoint x="132" y="211" as="targetPoint" />
          </mxGeometry>
        </mxCell>
        <mxCell id="aWVqA__GNzo0X58u-wp--1806" value="" style="endArrow=none;html=1;rounded=0;" edge="1" parent="1">
          <mxGeometry width="50" height="50" relative="1" as="geometry">
            <mxPoint x="310" y="211" as="sourcePoint" />
            <mxPoint x="340" y="211" as="targetPoint" />
          </mxGeometry>
        </mxCell>
        <mxCell id="aWVqA__GNzo0X58u-wp--1807" value="" style="endArrow=none;html=1;rounded=0;" edge="1" parent="1">
          <mxGeometry width="50" height="50" relative="1" as="geometry">
            <mxPoint x="854" y="210" as="sourcePoint" />
            <mxPoint x="884" y="210" as="targetPoint" />
          </mxGeometry>
        </mxCell>
        <mxCell id="aWVqA__GNzo0X58u-wp--1808" value="" style="endArrow=none;html=1;rounded=0;" edge="1" parent="1">
          <mxGeometry width="50" height="50" relative="1" as="geometry">
            <mxPoint x="471" y="420" as="sourcePoint" />
            <mxPoint x="511" y="420" as="targetPoint" />
          </mxGeometry>
        </mxCell>
        <mxCell id="aWVqA__GNzo0X58u-wp--1810" value="" style="endArrow=none;html=1;rounded=0;entryX=0.5;entryY=1;entryDx=0;entryDy=0;exitX=0.361;exitY=0.091;exitDx=0;exitDy=0;exitPerimeter=0;" edge="1" parent="1" source="1754" target="1764">
          <mxGeometry width="50" height="50" relative="1" as="geometry">
            <mxPoint x="560" y="220" as="sourcePoint" />
            <mxPoint x="610" y="170" as="targetPoint" />
          </mxGeometry>
        </mxCell>
      </root>
    </mxGraphModel>
  </diagram>
</mxfile>
